<svg width="181" height="63" viewBox="0 0 181 63" fill="none" xmlns="http://www.w3.org/2000/svg">
<circle cx="22" cy="28" r="19.5191" stroke="#D9D9D9" stroke-width="4.96181"/>
<circle cx="22" cy="28.2546" r="9" fill="#D9D9D9"/>
<path d="M53.4387 54.2495C53.4387 58.1149 50.3136 61.2483 46.4587 61.2483C42.6038 61.2483 39.4787 58.1149 39.4787 54.2495C39.4787 50.3841 42.6038 47.2507 46.4587 47.2507C50.3136 47.2507 53.4387 50.3841 53.4387 54.2495Z" fill="#D9D9D9" stroke="#D9D9D9" stroke-width="0.0400146"/>
<path d="M75.0256 32.3342C73.3375 32.3342 71.9665 32.1714 70.9125 31.8458C69.8671 31.5116 69.0659 31.0489 68.5089 30.4576C67.952 29.8664 67.5707 29.1723 67.365 28.3754C67.1593 27.5785 67.0565 26.713 67.0565 25.779V19.4424C67.0565 18.4826 67.1551 17.5958 67.3521 16.7817C67.5578 15.9591 67.9348 15.2436 68.4832 14.6352C69.0402 14.0268 69.8457 13.5556 70.8997 13.2214C71.9536 12.8786 73.3289 12.7072 75.0256 12.7072C76.6451 12.7072 77.9475 12.8743 78.9329 13.2085C79.9269 13.5341 80.681 13.9969 81.1951 14.5967C81.7093 15.1965 82.0563 15.9034 82.2362 16.7175C82.4162 17.5229 82.5062 18.4055 82.5062 19.3652V19.5966L78.7659 20.0336V19.0696C78.7659 18.1785 78.6545 17.4929 78.4317 17.0131C78.2089 16.5247 77.8276 16.1862 77.2877 15.9977C76.7479 15.8006 75.9938 15.7021 75.0256 15.7021C74.083 15.7021 73.3032 15.7963 72.6863 15.9848C72.0779 16.1648 71.6237 16.4947 71.3238 16.9745C71.0239 17.4458 70.8739 18.1185 70.8739 18.9925V26.1646C70.8739 27.0301 71.0239 27.6942 71.3238 28.1569C71.6237 28.611 72.0779 28.9238 72.6863 29.0952C73.3032 29.258 74.0873 29.3394 75.0384 29.3394C76.0067 29.3394 76.7607 29.258 77.3006 29.0952C77.8404 28.9238 78.2174 28.6067 78.4317 28.144C78.6545 27.6727 78.7659 26.9872 78.7659 26.0875V25.4834H82.5062V25.8304C82.5062 26.7644 82.4205 27.6256 82.2491 28.4139C82.0777 29.2023 81.7392 29.8921 81.2337 30.4833C80.7281 31.066 79.9783 31.5201 78.9844 31.8458C77.9904 32.1714 76.6708 32.3342 75.0256 32.3342ZM86.1822 29.1466H89.6397V15.8691H86.1822V13.0286H96.8761V15.8691H93.4443V29.1466H96.8761V32H86.1822V29.1466ZM101.349 13.0286H104.215L114.421 26.4988L114.074 26.6145V13.0286H117.467V32H114.601L104.434 18.7354L104.781 18.6197V32H101.349V13.0286ZM122.351 13.0286H134.78V15.9077H126.156V20.9462H133.804V23.6968H126.156V29.1209H134.922V32H122.351V13.0286ZM138.983 32V13.0286H143.186L148.816 22.7199H148.289L153.906 13.0286H158.186V32H154.613V17.3987L154.896 17.4758L149.87 26.4859H147.312L142.107 17.5272L142.557 17.4501V32H138.983ZM161.528 32L167.775 13.0286H172.839L179.163 32H175.114L170.23 15.3165H170.564L165.513 32H161.528ZM165.14 28.3882L165.898 25.432H174.818L175.551 28.3882H165.14Z" fill="#D9D9D9"/>
<path d="M66.598 38.5857H74.1089V40.4949H69.0961V43.8761H73.764V45.6676H69.0961V51H66.598V38.5857ZM81.7206 51.2187C80.6048 51.2187 79.688 51.1037 78.9703 50.8738C78.2526 50.6439 77.6947 50.3271 77.2966 49.9234C76.8985 49.5197 76.6181 49.0487 76.4555 48.5104C76.2985 47.9721 76.22 47.3974 76.22 46.7862V42.9004C76.22 42.2724 76.2985 41.6865 76.4555 41.1426C76.6125 40.5931 76.89 40.1108 77.2882 39.6959C77.6863 39.281 78.2442 38.9586 78.9619 38.7287C79.6796 38.4932 80.5992 38.3754 81.7206 38.3754C82.7916 38.3754 83.6719 38.4988 84.3616 38.7455C85.0569 38.9922 85.598 39.3314 85.9849 39.7632C86.3774 40.1893 86.6493 40.6828 86.8007 41.2435C86.9577 41.8042 87.0362 42.3986 87.0362 43.0266V46.6516C87.0362 47.2628 86.9577 47.8432 86.8007 48.3927C86.6437 48.9366 86.369 49.4216 85.9765 49.8477C85.5896 50.2739 85.0513 50.6103 84.3616 50.857C83.6719 51.0981 82.7916 51.2187 81.7206 51.2187ZM81.7206 49.259C82.3486 49.259 82.8701 49.1945 83.285 49.0655C83.7 48.9366 84.0112 48.7123 84.2186 48.3927C84.4261 48.073 84.5298 47.6301 84.5298 47.0638V42.564C84.5298 42.0089 84.4261 41.5687 84.2186 41.2435C84.0112 40.9183 83.6972 40.6856 83.2766 40.5454C82.8617 40.4052 82.343 40.3351 81.7206 40.3351C81.1038 40.3351 80.5712 40.4024 80.1226 40.537C79.674 40.6716 79.3292 40.9015 79.0881 41.2267C78.8469 41.5519 78.7264 41.9977 78.7264 42.564V47.0638C78.7264 47.6301 78.8441 48.073 79.0796 48.3927C79.3208 48.7123 79.6656 48.9366 80.1142 49.0655C80.5627 49.1945 81.0982 49.259 81.7206 49.259ZM94.9424 51.2187C93.8378 51.2187 92.9406 51.1121 92.2509 50.8991C91.5669 50.6804 91.0426 50.3776 90.6781 49.9907C90.3136 49.6038 90.0641 49.1496 89.9296 48.6282C89.795 48.1067 89.7277 47.5404 89.7277 46.9292V42.7827C89.7277 42.1547 89.7922 41.5743 89.9211 41.0416C90.0557 40.5033 90.3024 40.0351 90.6613 39.637C91.0258 39.2389 91.5528 38.9305 92.2425 38.7118C92.9322 38.4876 93.8322 38.3754 94.9424 38.3754C96.0021 38.3754 96.8544 38.4848 97.4993 38.7034C98.1497 38.9165 98.6431 39.2193 98.9796 39.6118C99.316 40.0043 99.5431 40.4669 99.6608 40.9996C99.7786 41.5267 99.8375 42.1042 99.8375 42.7322V42.8836L97.3899 43.1696V42.5388C97.3899 41.9556 97.317 41.507 97.1712 41.193C97.0254 40.8734 96.7759 40.6519 96.4227 40.5286C96.0694 40.3996 95.576 40.3351 94.9424 40.3351C94.3256 40.3351 93.8153 40.3968 93.4116 40.5202C93.0135 40.6379 92.7163 40.8538 92.5201 41.1678C92.3238 41.4762 92.2257 41.9164 92.2257 42.4883V47.1815C92.2257 47.7478 92.3238 48.1824 92.5201 48.4852C92.7163 48.7824 93.0135 48.987 93.4116 49.0992C93.8153 49.2057 94.3284 49.259 94.9508 49.259C95.5844 49.259 96.0778 49.2057 96.4311 49.0992C96.7843 48.987 97.0311 48.7796 97.1712 48.4768C97.317 48.1684 97.3899 47.7198 97.3899 47.131V46.7357H99.8375V46.9628C99.8375 47.574 99.7814 48.1375 99.6692 48.6534C99.5571 49.1693 99.3356 49.6206 99.0048 50.0075C98.674 50.3888 98.1833 50.686 97.5329 50.8991C96.8825 51.1121 96.019 51.2187 94.9424 51.2187ZM107.609 51.2187C106.549 51.2187 105.677 51.1149 104.993 50.9075C104.315 50.7 103.785 50.4084 103.404 50.0328C103.028 49.6571 102.764 49.2169 102.613 48.7123C102.467 48.2076 102.394 47.6581 102.394 47.0638V38.5773H104.892V47.1731C104.892 47.717 104.999 48.1403 105.212 48.4431C105.425 48.7459 105.733 48.959 106.137 49.0823C106.546 49.2001 107.037 49.259 107.609 49.259C108.192 49.259 108.672 49.1973 109.047 49.0739C109.429 48.9506 109.712 48.7375 109.897 48.4347C110.082 48.1319 110.174 47.7114 110.174 47.1731V38.5773H112.672V46.9628C112.672 47.5516 112.602 48.1039 112.462 48.6197C112.322 49.1356 112.07 49.5898 111.705 49.9823C111.346 50.3692 110.836 50.672 110.174 50.8907C109.513 51.1093 108.658 51.2187 107.609 51.2187ZM119.939 51.2187C119.093 51.2187 118.24 51.1178 117.382 50.9159C116.524 50.714 115.784 50.4393 115.162 50.0916L116.02 48.2665C116.496 48.5188 117.066 48.7487 117.727 48.9562C118.394 49.158 119.112 49.259 119.88 49.259C120.391 49.259 120.775 49.1861 121.033 49.0403C121.296 48.8945 121.473 48.6926 121.563 48.4347C121.658 48.1712 121.705 47.8712 121.705 47.5348C121.705 47.3049 121.666 47.0946 121.588 46.9039C121.509 46.7077 121.347 46.5283 121.1 46.3657C120.859 46.1974 120.489 46.0404 119.99 45.8947L117.87 45.2723C117.197 45.0704 116.673 44.8013 116.297 44.4648C115.927 44.1228 115.667 43.7247 115.515 43.2705C115.369 42.8163 115.296 42.3257 115.296 41.7986C115.296 41.0248 115.484 40.3856 115.86 39.8809C116.241 39.3763 116.757 39.0006 117.408 38.7539C118.064 38.5016 118.798 38.3754 119.611 38.3754C120.43 38.3754 121.184 38.4539 121.874 38.6109C122.563 38.7679 123.194 39.0118 123.766 39.3427L123.06 41.1005C122.6 40.8818 122.098 40.6996 121.554 40.5538C121.01 40.408 120.435 40.3351 119.83 40.3351C119.196 40.3351 118.692 40.4333 118.316 40.6295C117.94 40.8202 117.752 41.1818 117.752 41.7145C117.752 42.1406 117.862 42.4687 118.08 42.6986C118.305 42.9285 118.731 43.1387 119.359 43.3294L121.47 43.9602C122.305 44.2125 122.933 44.6134 123.354 45.1629C123.775 45.7124 123.985 46.475 123.985 47.4507C123.985 48.1515 123.845 48.788 123.564 49.3599C123.284 49.9262 122.847 50.3776 122.252 50.714C121.658 51.0505 120.887 51.2187 119.939 51.2187Z" fill="#D9D9D9"/>
</svg>
