<svg width="182" height="64" viewBox="0 0 182 64" fill="none" xmlns="http://www.w3.org/2000/svg">
<circle cx="22.5" cy="28.5" r="19.5191" stroke="#D9D9D9" stroke-width="4.96181"/>
<circle cx="22.5" cy="28.7546" r="9" fill="#F40049"/>
<path d="M53.9387 54.7495C53.9387 58.6149 50.8136 61.7483 46.9587 61.7483C43.1038 61.7483 39.9787 58.6149 39.9787 54.7495C39.9787 50.8841 43.1038 47.7507 46.9587 47.7507C50.8136 47.7507 53.9387 50.8841 53.9387 54.7495Z" fill="#D9D9D9" stroke="#D9D9D9" stroke-width="0.0400146"/>
<path d="M75.5256 32.8342C73.8375 32.8342 72.4665 32.6714 71.4125 32.3458C70.3671 32.0116 69.5659 31.5489 69.0089 30.9576C68.452 30.3664 68.0707 29.6723 67.865 28.8754C67.6593 28.0785 67.5565 27.213 67.5565 26.279V19.9424C67.5565 18.9826 67.6551 18.0958 67.8521 17.2817C68.0578 16.4591 68.4348 15.7436 68.9832 15.1352C69.5402 14.5268 70.3457 14.0556 71.3997 13.7214C72.4536 13.3786 73.8289 13.2072 75.5256 13.2072C77.1451 13.2072 78.4475 13.3743 79.4329 13.7085C80.4269 14.0341 81.181 14.4969 81.6951 15.0967C82.2093 15.6965 82.5563 16.4034 82.7362 17.2175C82.9162 18.0229 83.0062 18.9055 83.0062 19.8652V20.0966L79.2659 20.5336V19.5696C79.2659 18.6785 79.1545 17.9929 78.9317 17.5131C78.7089 17.0247 78.3276 16.6862 77.7877 16.4977C77.2479 16.3006 76.4938 16.2021 75.5256 16.2021C74.583 16.2021 73.8032 16.2963 73.1863 16.4848C72.5779 16.6648 72.1237 16.9947 71.8238 17.4745C71.5239 17.9458 71.3739 18.6185 71.3739 19.4925V26.6646C71.3739 27.5301 71.5239 28.1942 71.8238 28.6569C72.1237 29.111 72.5779 29.4238 73.1863 29.5952C73.8032 29.758 74.5873 29.8394 75.5384 29.8394C76.5067 29.8394 77.2607 29.758 77.8006 29.5952C78.3404 29.4238 78.7174 29.1067 78.9317 28.644C79.1545 28.1727 79.2659 27.4872 79.2659 26.5875V25.9834H83.0062V26.3304C83.0062 27.2644 82.9205 28.1256 82.7491 28.9139C82.5777 29.7023 82.2392 30.3921 81.7337 30.9833C81.2281 31.566 80.4783 32.0201 79.4844 32.3458C78.4904 32.6714 77.1708 32.8342 75.5256 32.8342ZM86.6822 29.6466H90.1397V16.3691H86.6822V13.5286H97.3761V16.3691H93.9443V29.6466H97.3761V32.5H86.6822V29.6466ZM101.849 13.5286H104.715L114.921 26.9988L114.574 27.1145V13.5286H117.967V32.5H115.101L104.934 19.2354L105.281 19.1197V32.5H101.849V13.5286ZM122.851 13.5286H135.28V16.4077H126.656V21.4462H134.304V24.1968H126.656V29.6209H135.422V32.5H122.851V13.5286ZM139.483 32.5V13.5286H143.686L149.316 23.2199H148.789L154.406 13.5286H158.686V32.5H155.113V17.8987L155.396 17.9758L150.37 26.9859H147.812L142.607 18.0272L143.057 17.9501V32.5H139.483ZM162.028 32.5L168.275 13.5286H173.339L179.663 32.5H175.614L170.73 15.8165H171.064L166.013 32.5H162.028ZM165.64 28.8882L166.398 25.932H175.318L176.051 28.8882H165.64Z" fill="#F40049"/>
<path d="M67.098 39.0857H74.6089V40.9949H69.5961V44.3761H74.264V46.1676H69.5961V51.5H67.098V39.0857ZM82.2206 51.7187C81.1048 51.7187 80.188 51.6037 79.4703 51.3738C78.7526 51.1439 78.1947 50.8271 77.7966 50.4234C77.3985 50.0197 77.1181 49.5487 76.9555 49.0104C76.7985 48.4721 76.72 47.8974 76.72 47.2862V43.4004C76.72 42.7724 76.7985 42.1865 76.9555 41.6426C77.1125 41.0931 77.39 40.6108 77.7882 40.1959C78.1863 39.781 78.7442 39.4586 79.4619 39.2287C80.1796 38.9932 81.0992 38.8754 82.2206 38.8754C83.2916 38.8754 84.1719 38.9988 84.8616 39.2455C85.5569 39.4922 86.098 39.8314 86.4849 40.2632C86.8774 40.6893 87.1493 41.1828 87.3007 41.7435C87.4577 42.3042 87.5362 42.8986 87.5362 43.5266V47.1516C87.5362 47.7628 87.4577 48.3432 87.3007 48.8927C87.1437 49.4366 86.869 49.9216 86.4765 50.3477C86.0896 50.7739 85.5513 51.1103 84.8616 51.357C84.1719 51.5981 83.2916 51.7187 82.2206 51.7187ZM82.2206 49.759C82.8486 49.759 83.3701 49.6945 83.785 49.5655C84.2 49.4366 84.5112 49.2123 84.7186 48.8927C84.9261 48.573 85.0298 48.1301 85.0298 47.5638V43.064C85.0298 42.5089 84.9261 42.0687 84.7186 41.7435C84.5112 41.4183 84.1972 41.1856 83.7766 41.0454C83.3617 40.9052 82.843 40.8351 82.2206 40.8351C81.6038 40.8351 81.0712 40.9024 80.6226 41.037C80.174 41.1716 79.8292 41.4015 79.5881 41.7267C79.3469 42.0519 79.2264 42.4977 79.2264 43.064V47.5638C79.2264 48.1301 79.3441 48.573 79.5796 48.8927C79.8208 49.2123 80.1656 49.4366 80.6142 49.5655C81.0627 49.6945 81.5982 49.759 82.2206 49.759ZM95.4424 51.7187C94.3378 51.7187 93.4406 51.6121 92.7509 51.3991C92.0669 51.1804 91.5426 50.8776 91.1781 50.4907C90.8136 50.1038 90.5641 49.6496 90.4296 49.1282C90.295 48.6067 90.2277 48.0404 90.2277 47.4292V43.2827C90.2277 42.6547 90.2922 42.0743 90.4211 41.5416C90.5557 41.0033 90.8024 40.5351 91.1613 40.137C91.5258 39.7389 92.0528 39.4305 92.7425 39.2118C93.4322 38.9876 94.3322 38.8754 95.4424 38.8754C96.5021 38.8754 97.3544 38.9848 97.9993 39.2034C98.6497 39.4165 99.1431 39.7193 99.4796 40.1118C99.816 40.5043 100.043 40.9669 100.161 41.4996C100.279 42.0267 100.337 42.6042 100.337 43.2322V43.3836L97.8899 43.6696V43.0388C97.8899 42.4556 97.817 42.007 97.6712 41.693C97.5254 41.3734 97.2759 41.1519 96.9227 41.0286C96.5694 40.8996 96.076 40.8351 95.4424 40.8351C94.8256 40.8351 94.3153 40.8968 93.9116 41.0202C93.5135 41.1379 93.2163 41.3538 93.0201 41.6678C92.8238 41.9762 92.7257 42.4164 92.7257 42.9883V47.6815C92.7257 48.2478 92.8238 48.6824 93.0201 48.9852C93.2163 49.2824 93.5135 49.487 93.9116 49.5992C94.3153 49.7057 94.8284 49.759 95.4508 49.759C96.0844 49.759 96.5778 49.7057 96.9311 49.5992C97.2843 49.487 97.5311 49.2796 97.6712 48.9768C97.817 48.6684 97.8899 48.2198 97.8899 47.631V47.2357H100.337V47.4628C100.337 48.074 100.281 48.6375 100.169 49.1534C100.057 49.6693 99.8356 50.1206 99.5048 50.5075C99.174 50.8888 98.6833 51.186 98.0329 51.3991C97.3825 51.6121 96.519 51.7187 95.4424 51.7187ZM108.109 51.7187C107.049 51.7187 106.177 51.6149 105.493 51.4075C104.815 51.2 104.285 50.9084 103.904 50.5328C103.528 50.1571 103.264 49.7169 103.113 49.2123C102.967 48.7076 102.894 48.1581 102.894 47.5638V39.0773H105.392V47.6731C105.392 48.217 105.499 48.6403 105.712 48.9431C105.925 49.2459 106.233 49.459 106.637 49.5823C107.046 49.7001 107.537 49.759 108.109 49.759C108.692 49.759 109.172 49.6973 109.547 49.5739C109.929 49.4506 110.212 49.2375 110.397 48.9347C110.582 48.6319 110.674 48.2114 110.674 47.6731V39.0773H113.172V47.4628C113.172 48.0516 113.102 48.6039 112.962 49.1197C112.822 49.6356 112.57 50.0898 112.205 50.4823C111.846 50.8692 111.336 51.172 110.674 51.3907C110.013 51.6093 109.158 51.7187 108.109 51.7187ZM120.439 51.7187C119.593 51.7187 118.74 51.6178 117.882 51.4159C117.024 51.214 116.284 50.9393 115.662 50.5916L116.52 48.7665C116.996 49.0188 117.566 49.2487 118.227 49.4562C118.894 49.658 119.612 49.759 120.38 49.759C120.891 49.759 121.275 49.6861 121.533 49.5403C121.796 49.3945 121.973 49.1926 122.063 48.9347C122.158 48.6712 122.205 48.3712 122.205 48.0348C122.205 47.8049 122.166 47.5946 122.088 47.4039C122.009 47.2077 121.847 47.0283 121.6 46.8657C121.359 46.6974 120.989 46.5404 120.49 46.3947L118.37 45.7723C117.697 45.5704 117.173 45.3013 116.797 44.9648C116.427 44.6228 116.167 44.2247 116.015 43.7705C115.869 43.3163 115.796 42.8257 115.796 42.2986C115.796 41.5248 115.984 40.8856 116.36 40.3809C116.741 39.8763 117.257 39.5006 117.908 39.2539C118.564 39.0016 119.298 38.8754 120.111 38.8754C120.93 38.8754 121.684 38.9539 122.374 39.1109C123.063 39.2679 123.694 39.5118 124.266 39.8427L123.56 41.6005C123.1 41.3818 122.598 41.1996 122.054 41.0538C121.51 40.908 120.935 40.8351 120.33 40.8351C119.696 40.8351 119.192 40.9333 118.816 41.1295C118.44 41.3202 118.252 41.6818 118.252 42.2145C118.252 42.6406 118.362 42.9687 118.58 43.1986C118.805 43.4285 119.231 43.6387 119.859 43.8294L121.97 44.4602C122.805 44.7125 123.433 45.1134 123.854 45.6629C124.275 46.2124 124.485 46.975 124.485 47.9507C124.485 48.6515 124.345 49.288 124.064 49.8599C123.784 50.4262 123.347 50.8776 122.752 51.214C122.158 51.5505 121.387 51.7187 120.439 51.7187Z" fill="#D9D9D9"/>
</svg>
